<?xml version="1.0" encoding="UTF-8" standalone="no"?>
<!DOCTYPE svg PUBLIC "-//W3C//DTD SVG 1.1//EN" "http://www.w3.org/Graphics/SVG/1.1/DTD/svg11.dtd">
<svg version="1.1" xmlns="http://www.w3.org/2000/svg" xmlns:xlink="http://www.w3.org/1999/xlink" preserveAspectRatio="xMidYMid meet" viewBox="0 0 640 640" width="250" height="250"><defs><path d="M437.5 17.5C426.25 6.25 411 -0.12 395.13 -0.12C369.61 -0.12 165.51 -0.12 140 -0.12C106.88 0 80 26.88 80 60C80 112 80 528 80 580C80 613.13 106.88 640 140 640C176 640 464 640 500 640C533.13 640 560 613.13 560 580C560 538.49 560 206.39 560 164.88C560 149 553.63 133.63 542.38 122.38C521.4 101.4 447.99 27.99 437.5 17.5ZM400 160L400 64.88L495.13 160L400 160ZM140 60L340 60C340 138 340 181.33 340 190C340 206.63 353.38 220 370 220C378.67 220 422 220 500 220L500 580L140 580L140 60ZM460 520L460 360C442.37 342.38 432.58 332.58 430.63 330.63C424.75 324.75 415.25 324.75 409.38 330.63C402.08 337.92 365.63 374.38 300 440C270.38 410.38 253.92 393.92 250.63 390.63C244.75 384.75 235.25 384.75 229.38 390.63C226.08 393.92 209.63 410.38 180 440L180 520L460 520ZM180 280C180 313.13 206.88 340 240 340C273.13 340 300 313.13 300 280C300 246.88 273.13 220 240 220C206.88 220 180 246.88 180 280Z" id="cr8PBbbLG"></path></defs><g><g><g><use xlink:href="#cr8PBbbLG" opacity="1" fill="#ffffff" fill-opacity="1"></use><g><use xlink:href="#cr8PBbbLG" opacity="1" fill-opacity="0" stroke="#000000" stroke-width="1" stroke-opacity="0"></use></g></g></g></g></svg>